<?xml version="1.0" standalone="no"?>
<!DOCTYPE svg PUBLIC "-//W3C//DTD SVG 20010904//EN"
 "http://www.w3.org/TR/2001/REC-SVG-20010904/DTD/svg10.dtd">
<svg version="1.0" xmlns="http://www.w3.org/2000/svg"
 width="258.000000pt" height="226.000000pt" viewBox="0 0 258.000000 226.000000"
 preserveAspectRatio="xMidYMid meet">

<g transform="translate(0.000000,226.000000) scale(0.100000,-0.100000)"
fill="#000000" stroke="none">
<path d="M1045 1469 c-231 -370 -426 -682 -433 -695 l-13 -24 173 0 173 0 229
398 c126 218 232 399 236 402 3 3 48 78 99 167 104 181 116 221 87 297 -17 44
-94 126 -118 126 -7 0 -202 -302 -433 -671z"/>
<path d="M1604 1613 c-60 -96 -110 -178 -112 -182 -6 -16 219 -397 249 -423
37 -31 109 -52 153 -43 109 23 184 133 157 232 -9 31 -277 505 -325 575 -10
14 -28 -8 -122 -159z"/>
<path d="M1466 728 c-8 -13 -66 -106 -130 -208 l-115 -185 490 -3 c307 -1 505
2 529 8 94 25 154 104 154 200 0 96 -60 174 -153 200 -21 6 -186 10 -398 10
l-363 0 -14 -22z"/>
</g>
</svg>
